<?xml version="1.0" encoding="UTF-8" standalone="no"?>
<!DOCTYPE svg PUBLIC "-//W3C//DTD SVG 20010904//EN"
              "http://www.w3.org/TR/2001/REC-SVG-20010904/DTD/svg10.dtd">

<svg xmlns="http://www.w3.org/2000/svg"
     width="1.33333in" height="0.466667in"
     viewBox="0 0 400 140">
  <path id="Pfad"
        fill="black" stroke="none" stroke-width="1"
        d="M 30.00,12.00
           C 30.00,12.00 30.00,15.41 30.00,15.41
             30.00,15.41 12.97,15.41 12.97,15.41
             12.97,15.41 12.97,29.59 12.97,29.59
             12.97,29.59 27.50,29.59 27.50,29.59
             27.50,29.59 27.50,33.00 27.50,33.00
             27.50,33.00 12.97,33.00 12.97,33.00
             12.97,33.00 12.97,51.00 12.97,51.00
             12.97,51.00 9.00,51.00 9.00,51.00
             9.00,51.00 9.00,12.00 9.00,12.00
             9.00,12.00 30.00,12.00 30.00,12.00 Z
           M 53.97,12.00
           C 53.97,12.00 53.97,51.00 53.97,51.00
             53.97,51.00 50.00,51.00 50.00,51.00
             50.00,51.00 50.00,12.00 50.00,12.00
             50.00,12.00 53.97,12.00 53.97,12.00 Z
           M 96.81,51.00
           C 96.81,51.00 87.16,35.00 87.16,35.00
             87.16,35.00 79.97,35.00 79.97,35.00
             79.97,35.00 79.97,51.00 79.97,51.00
             79.97,51.00 76.00,51.00 76.00,51.00
             76.00,51.00 76.00,12.00 76.00,12.00
             76.00,12.00 87.72,12.00 87.72,12.00
             92.07,12.00 95.38,13.06 97.62,15.17
             99.88,17.28 101.00,20.04 101.00,23.47
             101.00,26.32 100.20,28.76 98.59,30.77
             96.99,32.78 94.61,34.09 91.45,34.70
             91.45,34.70 101.45,51.00 101.45,51.00
             101.45,51.00 96.81,51.00 96.81,51.00 Z
           M 79.97,31.59
           C 79.97,31.59 87.83,31.59 87.83,31.59
             90.88,31.59 93.18,30.86 94.72,29.38
             96.26,27.89 97.03,25.90 97.03,23.42
             97.03,20.86 96.29,18.89 94.80,17.50
             93.32,16.11 90.97,15.41 87.77,15.41
             87.77,15.41 79.97,15.41 79.97,15.41
             79.97,15.41 79.97,31.59 79.97,31.59 Z
           M 134.50,51.00
           C 131.94,51.00 129.68,50.56 127.73,49.67
             125.80,48.79 124.27,47.55 123.16,45.97
             122.05,44.39 121.50,42.62 121.50,40.67
             121.50,40.67 125.80,40.67 125.80,40.67
             125.98,42.51 126.80,44.12 128.25,45.52
             129.71,46.90 131.84,47.59 134.64,47.59
             137.22,47.59 139.27,46.93 140.77,45.61
             142.27,44.28 143.03,42.60 143.03,40.58
             143.03,38.95 142.61,37.64 141.78,36.64
             140.95,35.64 139.91,34.90 138.66,34.41
             137.41,33.92 135.70,33.39 133.52,32.81
             130.95,32.12 128.92,31.45 127.42,30.80
             125.92,30.14 124.64,29.12 123.58,27.75
             122.52,26.38 122.00,24.51 122.00,22.16
             122.00,20.20 122.51,18.45 123.53,16.92
             124.56,15.38 126.01,14.18 127.88,13.31
             129.74,12.44 131.88,12.00 134.31,12.00
             137.88,12.00 140.74,12.88 142.92,14.62
             145.10,16.37 146.35,18.61 146.67,21.36
             146.67,21.36 142.44,21.36 142.44,21.36
             142.19,19.81 141.33,18.43 139.88,17.22
             138.41,16.01 136.45,15.41 133.98,15.41
             131.69,15.41 129.78,16.02 128.25,17.23
             126.73,18.45 125.97,20.11 125.97,22.22
             125.97,23.81 126.38,25.10 127.22,26.08
             128.06,27.06 129.11,27.80 130.38,28.31
             131.63,28.81 133.34,29.36 135.48,29.94
             137.97,30.62 139.98,31.31 141.52,31.98
             143.05,32.65 144.35,33.68 145.41,35.06
             146.47,36.44 147.00,38.29 147.00,40.61
             147.00,42.39 146.52,44.08 145.55,45.67
             144.59,47.27 143.16,48.55 141.27,49.53
             139.38,50.51 137.12,51.00 134.50,51.00 Z
           M 191.00,12.00
           C 191.00,12.00 191.00,15.41 191.00,15.41
             191.00,15.41 179.97,15.41 179.97,15.41
             179.97,15.41 179.97,51.00 179.97,51.00
             179.97,51.00 176.00,51.00 176.00,51.00
             176.00,51.00 176.00,15.41 176.00,15.41
             176.00,15.41 165.00,15.41 165.00,15.41
             165.00,15.41 165.00,12.00 165.00,12.00
             165.00,12.00 191.00,12.00 191.00,12.00 Z
           M 238.97,51.00
           C 238.97,51.00 235.00,51.00 235.00,51.00
             235.00,51.00 212.97,18.19 212.97,18.19
             212.97,18.19 212.97,51.00 212.97,51.00
             212.97,51.00 209.00,51.00 209.00,51.00
             209.00,51.00 209.00,12.00 209.00,12.00
             209.00,12.00 212.97,12.00 212.97,12.00
             212.97,12.00 235.00,44.75 235.00,44.75
             235.00,44.75 235.00,12.00 235.00,12.00
             235.00,12.00 238.97,12.00 238.97,12.00
             238.97,12.00 238.97,51.00 238.97,51.00 Z
           M 283.16,42.00
           C 283.16,42.00 265.36,42.00 265.36,42.00
             265.36,42.00 261.94,51.00 261.94,51.00
             261.94,51.00 257.80,51.00 257.80,51.00
             257.80,51.00 272.08,12.50 272.08,12.50
             272.08,12.50 276.50,12.50 276.50,12.50
             276.50,12.50 290.72,51.00 290.72,51.00
             290.72,51.00 286.58,51.00 286.58,51.00
             286.58,51.00 283.16,42.00 283.16,42.00 Z
           M 281.98,38.59
           C 281.98,38.59 274.25,17.42 274.25,17.42
             274.25,17.42 266.53,38.59 266.53,38.59
             266.53,38.59 281.98,38.59 281.98,38.59 Z
           M 348.00,12.50
           C 348.00,12.50 348.00,51.00 348.00,51.00
             348.00,51.00 344.03,51.00 344.03,51.00
             344.03,51.00 344.03,20.25 344.03,20.25
             344.03,20.25 330.41,51.00 330.41,51.00
             330.41,51.00 327.59,51.00 327.59,51.00
             327.59,51.00 313.97,20.38 313.97,20.38
             313.97,20.38 313.97,51.00 313.97,51.00
             313.97,51.00 310.00,51.00 310.00,51.00
             310.00,51.00 310.00,12.50 310.00,12.50
             310.00,12.50 314.19,12.50 314.19,12.50
             314.19,12.50 328.97,45.86 328.97,45.86
             328.97,45.86 343.75,12.50 343.75,12.50
             343.75,12.50 348.00,12.50 348.00,12.50 Z
           M 373.97,15.41
           C 373.97,15.41 373.97,29.59 373.97,29.59
             373.97,29.59 389.00,29.59 389.00,29.59
             389.00,29.59 389.00,33.00 389.00,33.00
             389.00,33.00 373.97,33.00 373.97,33.00
             373.97,33.00 373.97,47.59 373.97,47.59
             373.97,47.59 390.50,47.59 390.50,47.59
             390.50,47.59 390.50,51.00 390.50,51.00
             390.50,51.00 370.00,51.00 370.00,51.00
             370.00,51.00 370.00,12.00 370.00,12.00
             370.00,12.00 390.50,12.00 390.50,12.00
             390.50,12.00 390.50,15.41 390.50,15.41
             390.50,15.41 373.97,15.41 373.97,15.41 Z
           M 12.97,123.59
           C 12.97,123.59 27.00,123.59 27.00,123.59
             27.00,123.59 27.00,127.00 27.00,127.00
             27.00,127.00 9.00,127.00 9.00,127.00
             9.00,127.00 9.00,88.00 9.00,88.00
             9.00,88.00 12.97,88.00 12.97,88.00
             12.97,88.00 12.97,123.59 12.97,123.59 Z
           M 69.16,118.00
           C 69.16,118.00 51.36,118.00 51.36,118.00
             51.36,118.00 47.94,127.00 47.94,127.00
             47.94,127.00 43.80,127.00 43.80,127.00
             43.80,127.00 58.08,88.50 58.08,88.50
             58.08,88.50 62.50,88.50 62.50,88.50
             62.50,88.50 76.72,127.00 76.72,127.00
             76.72,127.00 72.58,127.00 72.58,127.00
             72.58,127.00 69.16,118.00 69.16,118.00 Z
           M 67.98,114.59
           C 67.98,114.59 60.25,93.42 60.25,93.42
             60.25,93.42 52.53,114.59 52.53,114.59
             52.53,114.59 67.98,114.59 67.98,114.59 Z
           M 108.50,127.00
           C 105.94,127.00 103.68,126.56 101.73,125.67
             99.80,124.79 98.27,123.55 97.16,121.97
             96.05,120.39 95.50,118.62 95.50,116.67
             95.50,116.67 99.80,116.67 99.80,116.67
             99.98,118.51 100.80,120.12 102.25,121.52
             103.71,122.90 105.84,123.59 108.64,123.59
             111.22,123.59 113.27,122.93 114.77,121.61
             116.27,120.28 117.03,118.60 117.03,116.58
             117.03,114.95 116.61,113.64 115.78,112.64
             114.95,111.64 113.91,110.90 112.66,110.41
             111.41,109.92 109.70,109.39 107.52,108.81
             104.95,108.12 102.92,107.45 101.42,106.80
             99.92,106.14 98.64,105.12 97.58,103.75
             96.52,102.38 96.00,100.51 96.00,98.16
             96.00,96.20 96.51,94.45 97.53,92.92
             98.56,91.38 100.01,90.18 101.88,89.31
             103.74,88.44 105.88,88.00 108.31,88.00
             111.88,88.00 114.74,88.88 116.92,90.62
             119.10,92.37 120.35,94.61 120.67,97.36
             120.67,97.36 116.44,97.36 116.44,97.36
             116.19,95.81 115.33,94.43 113.88,93.22
             112.41,92.01 110.45,91.41 107.98,91.41
             105.69,91.41 103.78,92.02 102.25,93.23
             100.73,94.45 99.97,96.11 99.97,98.22
             99.97,99.81 100.38,101.10 101.22,102.08
             102.06,103.06 103.11,103.80 104.38,104.31
             105.63,104.81 107.34,105.36 109.48,105.94
             111.97,106.62 113.98,107.31 115.52,107.98
             117.05,108.65 118.35,109.68 119.41,111.06
             120.47,112.44 121.00,114.29 121.00,116.61
             121.00,118.39 120.52,120.08 119.55,121.67
             118.59,123.27 117.16,124.55 115.27,125.53
             113.38,126.51 111.12,127.00 108.50,127.00 Z
           M 165.00,88.00
           C 165.00,88.00 165.00,91.41 165.00,91.41
             165.00,91.41 153.97,91.41 153.97,91.41
             153.97,91.41 153.97,127.00 153.97,127.00
             153.97,127.00 150.00,127.00 150.00,127.00
             150.00,127.00 150.00,91.41 150.00,91.41
             150.00,91.41 139.00,91.41 139.00,91.41
             139.00,91.41 139.00,88.00 139.00,88.00
             139.00,88.00 165.00,88.00 165.00,88.00 Z
           M 212.97,127.00
           C 212.97,127.00 209.00,127.00 209.00,127.00
             209.00,127.00 186.97,94.19 186.97,94.19
             186.97,94.19 186.97,127.00 186.97,127.00
             186.97,127.00 183.00,127.00 183.00,127.00
             183.00,127.00 183.00,88.00 183.00,88.00
             183.00,88.00 186.97,88.00 186.97,88.00
             186.97,88.00 209.00,120.75 209.00,120.75
             209.00,120.75 209.00,88.00 209.00,88.00
             209.00,88.00 212.97,88.00 212.97,88.00
             212.97,88.00 212.97,127.00 212.97,127.00 Z
           M 257.16,118.00
           C 257.16,118.00 239.36,118.00 239.36,118.00
             239.36,118.00 235.94,127.00 235.94,127.00
             235.94,127.00 231.80,127.00 231.80,127.00
             231.80,127.00 246.08,88.50 246.08,88.50
             246.08,88.50 250.50,88.50 250.50,88.50
             250.50,88.50 264.72,127.00 264.72,127.00
             264.72,127.00 260.58,127.00 260.58,127.00
             260.58,127.00 257.16,118.00 257.16,118.00 Z
           M 255.98,114.59
           C 255.98,114.59 248.25,93.42 248.25,93.42
             248.25,93.42 240.53,114.59 240.53,114.59
             240.53,114.59 255.98,114.59 255.98,114.59 Z
           M 322.00,88.50
           C 322.00,88.50 322.00,127.00 322.00,127.00
             322.00,127.00 318.03,127.00 318.03,127.00
             318.03,127.00 318.03,96.25 318.03,96.25
             318.03,96.25 304.41,127.00 304.41,127.00
             304.41,127.00 301.59,127.00 301.59,127.00
             301.59,127.00 287.97,96.38 287.97,96.38
             287.97,96.38 287.97,127.00 287.97,127.00
             287.97,127.00 284.00,127.00 284.00,127.00
             284.00,127.00 284.00,88.50 284.00,88.50
             284.00,88.50 288.19,88.50 288.19,88.50
             288.19,88.50 302.97,121.86 302.97,121.86
             302.97,121.86 317.75,88.50 317.75,88.50
             317.75,88.50 322.00,88.50 322.00,88.50 Z
           M 347.97,91.41
           C 347.97,91.41 347.97,105.59 347.97,105.59
             347.97,105.59 363.00,105.59 363.00,105.59
             363.00,105.59 363.00,109.00 363.00,109.00
             363.00,109.00 347.97,109.00 347.97,109.00
             347.97,109.00 347.97,123.59 347.97,123.59
             347.97,123.59 364.50,123.59 364.50,123.59
             364.50,123.59 364.50,127.00 364.50,127.00
             364.50,127.00 344.00,127.00 344.00,127.00
             344.00,127.00 344.00,88.00 344.00,88.00
             344.00,88.00 364.50,88.00 364.50,88.00
             364.50,88.00 364.50,91.41 364.50,91.41
             364.50,91.41 347.97,91.41 347.97,91.41 Z" />
</svg>
