<?xml version="1.0" encoding="UTF-8" standalone="no"?>
<!DOCTYPE svg PUBLIC "-//W3C//DTD SVG 20010904//EN"
              "http://www.w3.org/TR/2001/REC-SVG-20010904/DTD/svg10.dtd">

<svg xmlns="http://www.w3.org/2000/svg"
     width="1.33333in" height="0.466667in"
     viewBox="0 0 400 140">
  <path id="Pfad"
        fill="black" stroke="none" stroke-width="1"
        d="M 27.97,12.00
           C 27.97,12.00 27.97,41.22 27.97,41.22
             27.97,44.17 27.03,46.54 25.16,48.33
             23.29,50.11 20.79,51.00 17.66,51.00
             14.41,51.00 11.83,50.05 9.89,48.16
             7.96,46.26 7.00,43.70 7.00,40.47
             7.00,40.47 10.97,40.47 10.97,40.47
             10.97,42.56 11.50,44.28 12.56,45.61
             13.63,46.93 15.31,47.59 17.59,47.59
             19.77,47.59 21.38,46.99 22.42,45.78
             23.47,44.56 24.00,43.05 24.00,41.23
             24.00,41.23 24.00,12.00 24.00,12.00
             24.00,12.00 27.97,12.00 27.97,12.00 Z
           M 68.48,51.00
           C 64.84,51.00 61.53,50.17 58.56,48.52
             55.60,46.86 53.27,44.55 51.56,41.58
             49.85,38.61 49.00,35.25 49.00,31.50
             49.00,27.75 49.85,24.39 51.56,21.42
             53.27,18.45 55.60,16.13 58.56,14.48
             61.53,12.83 64.84,12.00 68.48,12.00
             72.16,12.00 75.48,12.83 78.45,14.48
             81.42,16.13 83.75,18.45 85.44,21.42
             87.12,24.39 87.97,27.75 87.97,31.50
             87.97,35.25 87.12,38.61 85.44,41.58
             83.75,44.55 81.42,46.86 78.45,48.52
             75.48,50.17 72.16,51.00 68.48,51.00 Z
           M 68.48,47.59
           C 71.43,47.59 74.07,46.95 76.41,45.64
             78.75,44.33 80.60,42.45 81.95,40.00
             83.32,37.55 84.00,34.71 84.00,31.47
             84.00,28.23 83.32,25.40 81.95,22.97
             80.60,20.53 78.75,18.66 76.41,17.36
             74.07,16.06 71.43,15.41 68.48,15.41
             65.55,15.41 62.91,16.06 60.56,17.36
             58.22,18.66 56.36,20.53 55.00,22.97
             53.64,25.40 52.97,28.23 52.97,31.47
             52.97,34.71 53.64,37.55 55.00,40.00
             56.36,42.45 58.22,44.33 60.56,45.64
             62.91,46.95 65.55,47.59 68.48,47.59 Z
           M 136.00,12.00
           C 136.00,12.00 136.00,51.00 136.00,51.00
             136.00,51.00 132.03,51.00 132.03,51.00
             132.03,51.00 132.03,33.00 132.03,33.00
             132.03,33.00 110.97,33.00 110.97,33.00
             110.97,33.00 110.97,51.00 110.97,51.00
             110.97,51.00 107.00,51.00 107.00,51.00
             107.00,51.00 107.00,12.00 107.00,12.00
             107.00,12.00 110.97,12.00 110.97,12.00
             110.97,12.00 110.97,29.59 110.97,29.59
             110.97,29.59 132.03,29.59 132.03,29.59
             132.03,29.59 132.03,12.00 132.03,12.00
             132.03,12.00 136.00,12.00 136.00,12.00 Z
           M 181.16,42.00
           C 181.16,42.00 163.36,42.00 163.36,42.00
             163.36,42.00 159.94,51.00 159.94,51.00
             159.94,51.00 155.80,51.00 155.80,51.00
             155.80,51.00 170.08,12.50 170.08,12.50
             170.08,12.50 174.50,12.50 174.50,12.50
             174.50,12.50 188.72,51.00 188.72,51.00
             188.72,51.00 184.58,51.00 184.58,51.00
             184.58,51.00 181.16,42.00 181.16,42.00 Z
           M 179.98,38.59
           C 179.98,38.59 172.25,17.42 172.25,17.42
             172.25,17.42 164.53,38.59 164.53,38.59
             164.53,38.59 179.98,38.59 179.98,38.59 Z
           M 237.97,51.00
           C 237.97,51.00 234.00,51.00 234.00,51.00
             234.00,51.00 211.97,18.19 211.97,18.19
             211.97,18.19 211.97,51.00 211.97,51.00
             211.97,51.00 208.00,51.00 208.00,51.00
             208.00,51.00 208.00,12.00 208.00,12.00
             208.00,12.00 211.97,12.00 211.97,12.00
             211.97,12.00 234.00,44.75 234.00,44.75
             234.00,44.75 234.00,12.00 234.00,12.00
             234.00,12.00 237.97,12.00 237.97,12.00
             237.97,12.00 237.97,51.00 237.97,51.00 Z
           M 288.97,51.00
           C 288.97,51.00 285.00,51.00 285.00,51.00
             285.00,51.00 262.97,18.19 262.97,18.19
             262.97,18.19 262.97,51.00 262.97,51.00
             262.97,51.00 259.00,51.00 259.00,51.00
             259.00,51.00 259.00,12.00 259.00,12.00
             259.00,12.00 262.97,12.00 262.97,12.00
             262.97,12.00 285.00,44.75 285.00,44.75
             285.00,44.75 285.00,12.00 285.00,12.00
             285.00,12.00 288.97,12.00 288.97,12.00
             288.97,12.00 288.97,51.00 288.97,51.00 Z
           M 313.97,15.41
           C 313.97,15.41 313.97,29.59 313.97,29.59
             313.97,29.59 329.00,29.59 329.00,29.59
             329.00,29.59 329.00,33.00 329.00,33.00
             329.00,33.00 313.97,33.00 313.97,33.00
             313.97,33.00 313.97,47.59 313.97,47.59
             313.97,47.59 330.50,47.59 330.50,47.59
             330.50,47.59 330.50,51.00 330.50,51.00
             330.50,51.00 310.00,51.00 310.00,51.00
             310.00,51.00 310.00,12.00 310.00,12.00
             310.00,12.00 330.50,12.00 330.50,12.00
             330.50,12.00 330.50,15.41 330.50,15.41
             330.50,15.41 313.97,15.41 313.97,15.41 Z
           M 363.50,51.00
           C 360.94,51.00 358.68,50.56 356.73,49.67
             354.80,48.79 353.27,47.55 352.16,45.97
             351.05,44.39 350.50,42.62 350.50,40.67
             350.50,40.67 354.80,40.67 354.80,40.67
             354.98,42.51 355.80,44.12 357.25,45.52
             358.71,46.90 360.84,47.59 363.64,47.59
             366.22,47.59 368.27,46.93 369.77,45.61
             371.27,44.28 372.03,42.60 372.03,40.58
             372.03,38.95 371.61,37.64 370.78,36.64
             369.95,35.64 368.91,34.90 367.66,34.41
             366.41,33.92 364.70,33.39 362.52,32.81
             359.95,32.12 357.92,31.45 356.42,30.80
             354.92,30.14 353.64,29.12 352.58,27.75
             351.52,26.38 351.00,24.51 351.00,22.16
             351.00,20.20 351.51,18.45 352.53,16.92
             353.56,15.38 355.01,14.18 356.88,13.31
             358.74,12.44 360.88,12.00 363.31,12.00
             366.88,12.00 369.74,12.88 371.92,14.62
             374.10,16.37 375.35,18.61 375.67,21.36
             375.67,21.36 371.44,21.36 371.44,21.36
             371.19,19.81 370.33,18.43 368.88,17.22
             367.41,16.01 365.45,15.41 362.98,15.41
             360.69,15.41 358.78,16.02 357.25,17.23
             355.73,18.45 354.97,20.11 354.97,22.22
             354.97,23.81 355.38,25.10 356.22,26.08
             357.06,27.06 358.11,27.80 359.38,28.31
             360.63,28.81 362.34,29.36 364.48,29.94
             366.97,30.62 368.98,31.31 370.52,31.98
             372.05,32.65 373.35,33.68 374.41,35.06
             375.47,36.44 376.00,38.29 376.00,40.61
             376.00,42.39 375.52,44.08 374.55,45.67
             373.59,47.27 372.16,48.55 370.27,49.53
             368.38,50.51 366.12,51.00 363.50,51.00 Z
           M 47.00,87.50
           C 47.00,87.50 47.00,126.00 47.00,126.00
             47.00,126.00 43.03,126.00 43.03,126.00
             43.03,126.00 43.03,95.25 43.03,95.25
             43.03,95.25 29.41,126.00 29.41,126.00
             29.41,126.00 26.59,126.00 26.59,126.00
             26.59,126.00 12.97,95.38 12.97,95.38
             12.97,95.38 12.97,126.00 12.97,126.00
             12.97,126.00 9.00,126.00 9.00,126.00
             9.00,126.00 9.00,87.50 9.00,87.50
             9.00,87.50 13.19,87.50 13.19,87.50
             13.19,87.50 27.97,120.86 27.97,120.86
             27.97,120.86 42.75,87.50 42.75,87.50
             42.75,87.50 47.00,87.50 47.00,87.50 Z
           M 72.97,90.41
           C 72.97,90.41 72.97,104.59 72.97,104.59
             72.97,104.59 88.00,104.59 88.00,104.59
             88.00,104.59 88.00,108.00 88.00,108.00
             88.00,108.00 72.97,108.00 72.97,108.00
             72.97,108.00 72.97,122.59 72.97,122.59
             72.97,122.59 89.50,122.59 89.50,122.59
             89.50,122.59 89.50,126.00 89.50,126.00
             89.50,126.00 69.00,126.00 69.00,126.00
             69.00,126.00 69.00,87.00 69.00,87.00
             69.00,87.00 89.50,87.00 89.50,87.00
             89.50,87.00 89.50,90.41 89.50,90.41
             89.50,90.41 72.97,90.41 72.97,90.41 Z
           M 122.50,126.00
           C 119.94,126.00 117.68,125.56 115.73,124.67
             113.80,123.79 112.27,122.55 111.16,120.97
             110.05,119.39 109.50,117.62 109.50,115.67
             109.50,115.67 113.80,115.67 113.80,115.67
             113.98,117.51 114.80,119.12 116.25,120.52
             117.71,121.90 119.84,122.59 122.64,122.59
             125.22,122.59 127.27,121.93 128.77,120.61
             130.27,119.28 131.03,117.60 131.03,115.58
             131.03,113.95 130.61,112.64 129.78,111.64
             128.95,110.64 127.91,109.90 126.66,109.41
             125.41,108.92 123.70,108.39 121.52,107.81
             118.95,107.12 116.92,106.45 115.42,105.80
             113.92,105.14 112.64,104.12 111.58,102.75
             110.52,101.38 110.00,99.51 110.00,97.16
             110.00,95.20 110.51,93.45 111.53,91.92
             112.56,90.38 114.01,89.18 115.88,88.31
             117.74,87.44 119.88,87.00 122.31,87.00
             125.88,87.00 128.74,87.88 130.92,89.62
             133.10,91.37 134.35,93.61 134.67,96.36
             134.67,96.36 130.44,96.36 130.44,96.36
             130.19,94.81 129.33,93.43 127.88,92.22
             126.41,91.01 124.45,90.41 121.98,90.41
             119.69,90.41 117.78,91.02 116.25,92.23
             114.73,93.45 113.97,95.11 113.97,97.22
             113.97,98.81 114.38,100.10 115.22,101.08
             116.06,102.06 117.11,102.80 118.38,103.31
             119.63,103.81 121.34,104.36 123.48,104.94
             125.97,105.62 127.98,106.31 129.52,106.98
             131.05,107.65 132.35,108.68 133.41,110.06
             134.47,111.44 135.00,113.29 135.00,115.61
             135.00,117.39 134.52,119.08 133.55,120.67
             132.59,122.27 131.16,123.55 129.27,124.53
             127.38,125.51 125.12,126.00 122.50,126.00 Z
           M 167.50,126.00
           C 164.94,126.00 162.68,125.56 160.73,124.67
             158.80,123.79 157.27,122.55 156.16,120.97
             155.05,119.39 154.50,117.62 154.50,115.67
             154.50,115.67 158.80,115.67 158.80,115.67
             158.98,117.51 159.80,119.12 161.25,120.52
             162.71,121.90 164.84,122.59 167.64,122.59
             170.22,122.59 172.27,121.93 173.77,120.61
             175.27,119.28 176.03,117.60 176.03,115.58
             176.03,113.95 175.61,112.64 174.78,111.64
             173.95,110.64 172.91,109.90 171.66,109.41
             170.41,108.92 168.70,108.39 166.52,107.81
             163.95,107.12 161.92,106.45 160.42,105.80
             158.92,105.14 157.64,104.12 156.58,102.75
             155.52,101.38 155.00,99.51 155.00,97.16
             155.00,95.20 155.51,93.45 156.53,91.92
             157.56,90.38 159.01,89.18 160.88,88.31
             162.74,87.44 164.88,87.00 167.31,87.00
             170.88,87.00 173.74,87.88 175.92,89.62
             178.10,91.37 179.35,93.61 179.67,96.36
             179.67,96.36 175.44,96.36 175.44,96.36
             175.19,94.81 174.33,93.43 172.88,92.22
             171.41,91.01 169.45,90.41 166.98,90.41
             164.69,90.41 162.78,91.02 161.25,92.23
             159.73,93.45 158.97,95.11 158.97,97.22
             158.97,98.81 159.38,100.10 160.22,101.08
             161.06,102.06 162.11,102.80 163.38,103.31
             164.63,103.81 166.34,104.36 168.48,104.94
             170.97,105.62 172.98,106.31 174.52,106.98
             176.05,107.65 177.35,108.68 178.41,110.06
             179.47,111.44 180.00,113.29 180.00,115.61
             180.00,117.39 179.52,119.08 178.55,120.67
             177.59,122.27 176.16,123.55 174.27,124.53
             172.38,125.51 170.12,126.00 167.50,126.00 Z
           M 238.00,87.50
           C 238.00,87.50 238.00,126.00 238.00,126.00
             238.00,126.00 234.03,126.00 234.03,126.00
             234.03,126.00 234.03,95.25 234.03,95.25
             234.03,95.25 220.41,126.00 220.41,126.00
             220.41,126.00 217.59,126.00 217.59,126.00
             217.59,126.00 203.97,95.38 203.97,95.38
             203.97,95.38 203.97,126.00 203.97,126.00
             203.97,126.00 200.00,126.00 200.00,126.00
             200.00,126.00 200.00,87.50 200.00,87.50
             200.00,87.50 204.19,87.50 204.19,87.50
             204.19,87.50 218.97,120.86 218.97,120.86
             218.97,120.86 233.75,87.50 233.75,87.50
             233.75,87.50 238.00,87.50 238.00,87.50 Z
           M 283.16,117.00
           C 283.16,117.00 265.36,117.00 265.36,117.00
             265.36,117.00 261.94,126.00 261.94,126.00
             261.94,126.00 257.80,126.00 257.80,126.00
             257.80,126.00 272.08,87.50 272.08,87.50
             272.08,87.50 276.50,87.50 276.50,87.50
             276.50,87.50 290.72,126.00 290.72,126.00
             290.72,126.00 286.58,126.00 286.58,126.00
             286.58,126.00 283.16,117.00 283.16,117.00 Z
           M 281.98,113.59
           C 281.98,113.59 274.25,92.42 274.25,92.42
             274.25,92.42 266.53,113.59 266.53,113.59
             266.53,113.59 281.98,113.59 281.98,113.59 Z
           M 339.97,126.00
           C 339.97,126.00 336.00,126.00 336.00,126.00
             336.00,126.00 313.97,93.19 313.97,93.19
             313.97,93.19 313.97,126.00 313.97,126.00
             313.97,126.00 310.00,126.00 310.00,126.00
             310.00,126.00 310.00,87.00 310.00,87.00
             310.00,87.00 313.97,87.00 313.97,87.00
             313.97,87.00 336.00,119.75 336.00,119.75
             336.00,119.75 336.00,87.00 336.00,87.00
             336.00,87.00 339.97,87.00 339.97,87.00
             339.97,87.00 339.97,126.00 339.97,126.00 Z
           M 390.97,126.00
           C 390.97,126.00 387.00,126.00 387.00,126.00
             387.00,126.00 364.97,93.19 364.97,93.19
             364.97,93.19 364.97,126.00 364.97,126.00
             364.97,126.00 361.00,126.00 361.00,126.00
             361.00,126.00 361.00,87.00 361.00,87.00
             361.00,87.00 364.97,87.00 364.97,87.00
             364.97,87.00 387.00,119.75 387.00,119.75
             387.00,119.75 387.00,87.00 387.00,87.00
             387.00,87.00 390.97,87.00 390.97,87.00
             390.97,87.00 390.97,126.00 390.97,126.00 Z" />
</svg>
